<?xml version="1.0" encoding="UTF-8"?>
<!DOCTYPE svg PUBLIC "-//W3C//DTD SVG 1.1//EN" "http://www.w3.org/Graphics/SVG/1.1/DTD/svg11.dtd">
<!-- Creator: CorelDRAW X7 -->
<svg xmlns="http://www.w3.org/2000/svg" xml:space="preserve" width="200mm" height="50mm" version="1.1" style="shape-rendering:geometricPrecision; text-rendering:geometricPrecision; image-rendering:optimizeQuality; fill-rule:evenodd; clip-rule:evenodd"
viewBox="0 0 20000 5000"
 xmlns:xlink="http://www.w3.org/1999/xlink">
 <defs>
  <style type="text/css">
   <![CDATA[
    .str0 {stroke:#005EA6;stroke-width:50}
    .str1 {stroke:#FEFEFE;stroke-width:60;stroke-dasharray:120.000000 300.000000}
    .fil2 {fill:none}
    .fil0 {fill:#005EA6}
    .fil1 {fill:#FEFEFE;fill-rule:nonzero}
   ]]>
  </style>
 </defs>
 <g id="Layer_x0020_1">
  <metadata id="CorelCorpID_0Corel-Layer"/>
  <path class="fil0" d="M1246 180l-828 0 828 0zm0 2628l0 1104 511 0c154,0 292,-65 389,-163 98,-105 162,-235 162,-389 0,-154 -64,-292 -162,-389 -97,-106 -227,-163 -389,-163l-511 0zm0 -1793l0 950 478 0c138,0 252,-49 333,-138 89,-81 138,-195 138,-333 0,-138 -49,-251 -138,-341 -89,-89 -203,-138 -333,-138l-478 0zm0 -835l0 8 478 0c357,0 674,138 925,381 235,235 382,560 382,925 0,325 -122,625 -325,860l32 24c252,252 406,601 406,982 0,381 -154,722 -406,973 -251,252 -600,406 -981,406l-511 0 0 8 -828 0 0 -4567 828 0zm3058 0l-827 0 827 0zm0 0l0 3723 1525 0 0 836 -1525 0 0 8 -827 0 0 -4567 827 0zm2572 0l-827 0 827 0zm0 0l0 1695 0 763 0 195c0,259 -8,519 81,705 65,138 162,252 292,333 122,81 260,122 406,122 130,0 259,-33 381,-106 122,-65 219,-162 292,-284 122,-194 106,-462 106,-730l0 -89 0 -917 0 -1687 835 0 0 1687 0 917 0 89c0,381 0,763 -227,1152 -154,252 -349,446 -592,584 -235,138 -503,211 -795,211 -317,0 -601,-81 -860,-251 -268,-171 -454,-390 -592,-674 -179,-365 -163,-722 -163,-1071 9,-64 9,-129 9,-186l0 -763 0 -1695 827 0zm3456 827l1655 0 0 -827 -2482 0 0 3161c31,843 441,1337 1214,1393l8863 13 0 -835 -8140 0c-649,0 -1072,38 -1110,-898l0 -117 1233 0 0 -827 -1233 0 0 -1063zm0 1063l0 -1063 0 1063z"/>
  <path class="fil1 str0" d="M13150 2850c103,-47 196,-109 284,-197 181,-170 284,-414 284,-679 0,-265 -108,-493 -284,-679 -176,-181 -413,-279 -677,-279l-775 -5 0 2901 527 0 0 -975 78 0 581 974 622 1 -640 -1062zm-641 -1307l248 0c119,0 222,41 305,124 83,88 124,192 124,307 0,120 -41,224 -124,306 -83,84 -186,125 -305,125l-248 0 0 -862zm1917 0l1054 0 0 -527 -1581 0 0 2896 1581 0 0 -520 -1054 0 0 -646 785 0 0 -527 -785 0 0 -676zm0 676l0 -676 0 676zm2795 -1203l526 0 -526 0zm526 0l0 2247 1 649 -460 -484 -1090 -1121 0 1605 -527 0 0 -2251 0 -645 460 480 1090 1121 0 -1601 526 0zm192 0l0 527 0 -527zm0 0l1642 0 0 527 -568 0 0 2369 -527 0 0 -2369 -547 0 0 -527z"/>
  <path class="fil2 str1" d="M9918 706l0 2911c30,181 437,800 1143,708l7121 0 984 0"/>
 </g>
</svg>
